# xmcd
#
# Track frame offsets: 
#        150
#        8863
#        24720
#        35270
#        49648
#        63940
#        72285
#        86918
#        98898
#        112020
#
# Disc length: 1637 seconds
#
# Revision: 3
# Processed by: cddbd v1.5.2PL0 Copyright (c) Steve Scherf et al.
# Submitted via: ExactAudioCopyFreeDBPlugin 1.0
#
DISCID=8006630a
DTITLE=Various Artist - Christmas From Nashville
DYEAR=2002
DGENRE=Christmas
TTITLE0=Chet Atkins - Hark the Herald Angels Sing
TTITLE1=Lorrie Morgan - Toyland
TTITLE2=Waylon Jennings and Jessie Colter - Silent Night, Holy Night
TTITLE3=Don Williams - O Come All Ye Faithful
TTITLE4=Floyd Cramer - What Child Is This
TTITLE5=Jim Reeves - Jingle Bells
TTITLE6=Lorrie Morgan - O Holy Night
TTITLE7=Eddy Arnold - O Little Town of Bethlehem
TTITLE8=Oak Ridge Boys - Go Tell It on the Mountain
TTITLE9=Dottie West - The Lord's Prayer
EXTD=Christmas From Nashville YEAR: 2002
EXTT0=
EXTT1=
EXTT2=
EXTT3=
EXTT4=
EXTT5=
EXTT6=
EXTT7=
EXTT8=
EXTT9=
PLAYORDER=
